<svg width="660" height="650" viewBox="0 0 660 650" fill="none" xmlns="http://www.w3.org/2000/svg">
  <defs>
    <filter id="softGlow" x="-8%" y="-8%" width="116%" height="116%" color-interpolation-filters="sRGB">
      <feDropShadow dx="0" dy="0" stdDeviation="5" flood-color="#00F0FF" flood-opacity="0.28"/>
    </filter>
    <filter id="inkShadow" x="-8%" y="-8%" width="116%" height="116%" color-interpolation-filters="sRGB">
      <feDropShadow dx="0" dy="6" stdDeviation="5" flood-color="#000000" flood-opacity="0.28"/>
    </filter>
    <mask id="aCutouts">
      <rect width="660" height="650" fill="white"/>
      <rect x="274" y="191" width="144" height="77" rx="18" fill="black"/>
      <rect x="315" y="316" width="104" height="93" rx="19" fill="black"/>
      <rect x="224" y="240" width="48" height="29" rx="13" fill="black"/>
    </mask>
  </defs>

  <g filter="url(#softGlow)">
    <rect x="224" y="144" width="244" height="313" rx="34" fill="#00F0FF" mask="url(#aCutouts)"/>
    <path d="M489 166C489 153.3 499.3 143 512 143C524.7 143 535 153.3 535 166V243C535 254.5 542.4 261.2 554.2 264.6C569.4 269 579 276.5 579 291V421C579 440.9 562.9 457 543 457H525C505.1 457 489 440.9 489 421V166Z" fill="#00F0FF"/>
    <rect x="487" y="13" width="95" height="80" rx="31" fill="#00F0FF"/>
  </g>

  <g filter="url(#inkShadow)" stroke="#A9B0BA" stroke-width="14" stroke-linecap="round" stroke-linejoin="round">
    <path d="M365 329C424 266 402 214 326 207C225 198 84 231 29 320C-21 401 128 470 222 527"/>
    <path d="M222 527C146 538 128 599 181 607C240 616 258 572 222 527Z"/>
    <path d="M222 527C246 517 272 511 300 509"/>
    <path d="M300 499C296 536 314 552 346 543C374 535 389 511 388 495"/>
    <path d="M341 497C335 534 342 550 363 550C387 550 411 522 416 498"/>
    <path d="M416 498C384 501 375 516 394 529C428 553 441 574 415 609"/>
    <path d="M415 609C392 577 402 548 444 521C476 500 505 490 529 493C549 496 544 511 519 516C494 521 474 520 459 513"/>
    <path d="M459 513C455 536 466 550 493 550C526 550 552 540 580 519"/>
    <path d="M458 470L456 473"/>
  </g>
</svg>
